<svg width="532" height="532" viewBox="0 0 532 532" fill="none"
  xmlns="http://www.w3.org/2000/svg">
  <g filter="url(#filter0_d)">
    <rect x="10" y="6" width="512" height="512" rx="110" fill="url(#paint0_linear)"/>
    <path d="M210.026 360.75C187.159 360.75 169.309 354.333 156.476 341.5C143.876 328.433 137.576 311.283 137.576 290.05C137.576 271.15 141.309 254.583 148.776 240.35C156.243 226.117 165.926 215.15 177.826 207.45C189.726 199.75 202.209 195.9 215.276 195.9C228.109 195.9 238.026 199.75 245.026 207.45C252.259 214.917 255.876 224.6 255.876 236.5C255.876 246.3 253.659 254.583 249.226 261.35C245.026 268.117 239.426 271.5 232.426 271.5C227.993 271.5 224.376 270.45 221.576 268.35C219.009 266.25 217.726 263.333 217.726 259.6C217.726 257.967 217.959 256.1 218.426 254C218.893 251.9 219.243 250.383 219.476 249.45C220.643 245.95 221.226 242.683 221.226 239.65C221.226 236.617 220.409 234.283 218.776 232.65C217.376 231.017 215.276 230.2 212.476 230.2C207.109 230.2 202.093 232.65 197.426 237.55C192.759 242.217 189.026 248.633 186.226 256.8C183.426 264.967 182.026 273.95 182.026 283.75C182.026 310.817 193.809 324.35 217.376 324.35C226.943 324.35 237.209 321.2 248.176 314.9C259.376 308.367 270.343 298.683 281.076 285.85C283.876 282.583 287.026 280.95 290.526 280.95C293.559 280.95 295.893 282.35 297.526 285.15C299.393 287.95 300.326 291.8 300.326 296.7C300.326 305.567 298.109 312.8 293.676 318.4C282.709 331.933 269.526 342.433 254.126 349.9C238.959 357.133 224.259 360.75 210.026 360.75ZM313.951 360.75C304.151 360.75 296.451 357.133 290.851 349.9C285.251 342.433 281.751 330.533 280.351 314.2C277.551 281.533 276.151 252.95 276.151 228.45V216.2C276.385 208.5 278.485 203.133 282.451 200.1C286.418 197.067 292.368 195.55 300.301 195.55C306.368 195.55 310.801 196.95 313.601 199.75C316.635 202.317 318.151 206.75 318.151 213.05C318.151 239.883 319.785 274.767 323.051 317.7C333.085 300.433 341.718 284.683 348.951 270.45C356.418 255.983 364.468 236.967 373.101 213.4C375.668 206.4 379.051 201.733 383.251 199.4C387.451 196.833 392.701 195.55 399.001 195.55C411.835 195.55 418.251 199.633 418.251 207.8C418.251 210.6 417.318 214.45 415.451 219.35C396.551 263.45 378.701 299.033 361.901 326.1C353.735 339.4 345.918 348.5 338.451 353.4C330.985 358.3 322.818 360.75 313.951 360.75Z" fill="white"/>
  </g>
  <defs>
    <filter id="filter0_d" x="0" y="0" width="532" height="532" filterUnits="userSpaceOnUse" color-interpolation-filters="sRGB">
      <feFlood flood-opacity="0" result="BackgroundImageFix"/>
      <feColorMatrix in="SourceAlpha" type="matrix" values="0 0 0 0 0 0 0 0 0 0 0 0 0 0 0 0 0 0 127 0"/>
      <feOffset dy="4"/>
      <feGaussianBlur stdDeviation="5"/>
      <feColorMatrix type="matrix" values="0 0 0 0 0 0 0 0 0 0 0 0 0 0 0 0 0 0 0.2 0"/>
      <feBlend mode="normal" in2="BackgroundImageFix" result="effect1_dropShadow"/>
      <feBlend mode="normal" in="SourceGraphic" in2="effect1_dropShadow" result="shape"/>
    </filter>
    <linearGradient id="paint0_linear" x1="266" y1="6" x2="266" y2="518" gradientUnits="userSpaceOnUse">
      <stop stop-color="#BF7D7D"/>
      <stop offset="1" stop-color="#782424"/>
    </linearGradient>
  </defs>
</svg>
